<svg width="212" height="36" viewBox="0 0 212 36" fill="none" xmlns="http://www.w3.org/2000/svg">
  <rect x="1" y="1" width="34" height="34" rx="8" stroke="#58A6FF" stroke-width="2"/>
  <path d="M9 18L13.5 13.5V16.2L11.1 18L13.5 19.8V22.5L9 18Z" fill="#58A6FF"/>
  <path d="M27 18L22.5 22.5V19.8L24.9 18L22.5 16.2V13.5L27 18Z" fill="#58A6FF"/>
  <path d="M17 24L20 12H22L19 24H17Z" fill="#58A6FF"/>
  <circle cx="18" cy="10" r="2" fill="#58A6FF"/>
  <path d="M18 12.5L16.7 15H19.3L18 12.5Z" fill="#58A6FF"/>
  <path d="M53.26 25V11.18H59.06C62.3 11.18 64.28 13.12 64.28 16.08C64.28 19.02 62.3 20.94 59.06 20.94H56.28V25H53.26ZM56.28 18.48H58.76C60.4 18.48 61.22 17.62 61.22 16.08C61.22 14.52 60.4 13.66 58.76 13.66H56.28V18.48Z" fill="#58A6FF"/>
  <path d="M69.1214 25.24C65.9214 25.24 63.7614 23.1 63.7614 19.98C63.7614 16.88 65.9014 14.74 68.9814 14.74C72.0414 14.74 74.0014 16.78 74.0014 19.76V20.62H66.6414C66.8014 21.98 67.6814 22.84 69.1814 22.84C70.2414 22.84 70.9614 22.4 71.2614 21.64H73.9414C73.4214 23.82 71.5814 25.24 69.1214 25.24ZM66.7014 18.86H71.0814C70.9614 17.64 70.1414 16.94 68.9814 16.94C67.7814 16.94 66.9414 17.66 66.7014 18.86Z" fill="#58A6FF"/>
  <path d="M75.4025 25V15H78.1425V16.6C78.6225 15.54 79.5825 14.9 80.8425 14.9H81.4425V17.46H80.5225C78.9625 17.46 78.4025 18.08 78.4025 19.54V25H75.4025Z" fill="#58A6FF"/>
  <path d="M85.3015 25V17.5H83.8615V15H85.3015V13.88C85.3015 11.76 86.6015 10.64 88.9415 10.64H90.5415V12.92H89.3815C88.5815 12.92 88.3015 13.24 88.3015 13.9V15H90.5215V17.5H88.3015V25H85.3015Z" fill="#58A6FF"/>
  <path d="M96.5953 25.24C93.5353 25.24 91.3553 23.1 91.3553 19.98C91.3553 16.88 93.5353 14.74 96.5953 14.74C99.6553 14.74 101.835 16.88 101.835 19.98C101.835 23.1 99.6553 25.24 96.5953 25.24ZM96.5953 22.72C97.9953 22.72 98.8153 21.68 98.8153 19.98C98.8153 18.3 97.9953 17.26 96.5953 17.26C95.2153 17.26 94.3753 18.3 94.3753 19.98C94.3753 21.68 95.2153 22.72 96.5953 22.72Z" fill="#58A6FF"/>
  <path d="M103.215 25V15H105.955V16.6C106.435 15.54 107.395 14.9 108.655 14.9H109.255V17.46H108.335C106.775 17.46 106.215 18.08 106.215 19.54V25H103.215Z" fill="#58A6FF"/>
  <path d="M110.576 25V15H113.336V16.26C113.956 15.22 114.976 14.74 116.036 14.74C117.356 14.74 118.416 15.32 119.036 16.5C119.756 15.36 120.896 14.74 122.296 14.74C124.456 14.74 125.916 16.2 125.916 18.64V25H122.916V19.22C122.916 17.98 122.356 17.32 121.276 17.32C120.176 17.32 119.576 18.04 119.576 19.34V25H116.576V19.22C116.576 17.98 116.016 17.32 114.936 17.32C113.836 17.32 113.236 18.04 113.236 19.34V25H110.576Z" fill="#58A6FF"/>
</svg>
